HIERARCHY
ROOT hip
{
	OFFSET 0.000000 0.000000 0.000000 
	CHANNELS 6 Xposition Yposition Zposition Xrotation Zrotation Yrotation
	JOINT abdomen
	{
		OFFSET 0.000000 3.402643 0.000000 
		CHANNELS 3 Xrotation Zrotation Yrotation
		JOINT chest
		{
			OFFSET 0.000000 8.438565 -0.680529 
			CHANNELS 3 Xrotation Zrotation Yrotation
			JOINT neck
			{
				OFFSET 0.000000 10.207942 -0.272212 
				CHANNELS 3 Xrotation Zrotation Yrotation
				JOINT head
				{
					OFFSET 0.000000 3.130431 0.000000 
					CHANNELS 3 Xrotation Zrotation Yrotation
					End Site
					{
						OFFSET 0.000000 3.130435 0.000000 
					}
				}
			}
			JOINT lCollar
			{
				OFFSET 3.470700 6.669187 -0.816635 
				CHANNELS 3 Yrotation Zrotation Xrotation
				JOINT lShldr
				{
					OFFSET 3.198488 0.000000 0.000000 
					CHANNELS 3 Zrotation Yrotation Xrotation
					JOINT lForeArm
					{
						OFFSET 10.139888 0.000000 0.000000 
						CHANNELS 3 Yrotation Zrotation Xrotation
						JOINT lHand
						{
							OFFSET 8.370511 0.000000 0.000000 
							CHANNELS 3 Zrotation Yrotation Xrotation
							End Site
							{
								OFFSET 4.083176 0.000000 0.000000 
							}
						}
					}
				}
			}
			JOINT rCollar
			{
				OFFSET -3.470700 6.669187 -0.816635 
				CHANNELS 3 Yrotation Zrotation Xrotation
				JOINT rShldr
				{
					OFFSET -3.198488 0.000000 0.000000 
					CHANNELS 3 Zrotation Yrotation Xrotation
					JOINT rForeArm
					{
						OFFSET -10.139888 0.000000 0.000000 
						CHANNELS 3 Yrotation Zrotation Xrotation
						JOINT rHand
						{
							OFFSET -8.370511 0.000000 0.000000 
							CHANNELS 3 Zrotation Yrotation Xrotation
							End Site
							{
								OFFSET -4.083176 0.000000 0.000000 
							}
						}
					}
				}
			}
		}
	}
	JOINT lThigh
	{
		OFFSET 5.308129 -1.633274 1.361059 
		CHANNELS 3 Xrotation Zrotation Yrotation
		JOINT lShin
		{
			OFFSET -2.041588 -20.007561 0.000000 
			CHANNELS 3 Xrotation Zrotation Yrotation
			JOINT lFoot
			{
				OFFSET 0.000000 -19.190928 -1.224953 
				CHANNELS 3 Xrotation Yrotation Zrotation
				End Site
				{
					OFFSET 0.000000 -2.449906 4.627600 
				}
			}
		}
	}
	JOINT rThigh
	{
		OFFSET -5.308129 -1.633274 1.361059 
		CHANNELS 3 Xrotation Zrotation Yrotation
		JOINT rShin
		{
			OFFSET 2.041588 -20.007561 0.000000 
			CHANNELS 3 Xrotation Zrotation Yrotation
			JOINT rFoot
			{
				OFFSET 0.000000 -19.190928 -1.224953 
				CHANNELS 3 Xrotation Yrotation Zrotation
				End Site
				{
					OFFSET 0.000000 -2.449906 4.627600 
				}
			}
		}
	}
}
MOTION
Frames: 18
Frame Time: 0.016667
0.992453 48.777977 4.071181 -0.830192 -0.947166 -9.537060 -28.682501 -1.531870 1.311700 9.021930 0.918569 0.300849 -6.439860 14.526900 -9.787600 8.674100 11.584200 -1.884160 2.000000 -2.000000 0.000000 78.276100 -34.771301 63.930099 23.066700 -0.340634 0.053626 0.050190 0.032104 -121.794998 -2.000000 2.000000 0.000000 -66.972298 36.322399 73.375397 -28.574499 0.334912 0.065394 -0.054645 0.008884 -140.095993 -13.985497 3.900897 -10.306951 35.620579 3.134825 2.431194 4.079367 5.912827 0.460763 -8.228862 2.071913 3.976413 33.566311 -2.845917 -2.403439 9.359692 -15.112670 2.198179 
1.192459 48.761784 4.089391 -0.732570 -1.152250 -9.116130 -28.659401 -1.309380 1.354410 9.002040 1.023750 0.347386 -6.427930 14.790900 -9.950240 8.728410 11.816800 -1.914180 2.000000 -2.000000 0.000000 77.853897 -34.762402 64.828598 24.033501 -0.339712 0.055741 0.049164 0.028104 -123.268997 -2.000000 2.000000 0.000000 -66.502800 35.697498 73.502602 -28.896799 0.334542 0.066069 -0.054834 0.011804 -141.141006 -14.040919 4.113934 -10.308516 35.649170 3.140323 2.422704 4.482083 6.102896 0.400840 -8.172356 2.029764 3.679681 33.389004 -2.853683 -2.398711 9.428935 -14.874396 2.164413 
1.392443 48.745594 4.107601 -0.634944 -1.357340 -8.695900 -28.636700 -1.081680 1.383660 8.991870 1.128960 0.394043 -6.425460 15.054100 -10.123200 8.792870 12.049300 -1.939750 2.000000 -2.000000 0.000000 77.431503 -34.743801 65.742401 25.000299 -0.338755 0.057840 0.048241 0.024079 -124.744003 -2.000000 2.000000 0.000000 -66.033401 35.062801 73.610397 -29.219101 0.334169 0.066741 -0.055078 0.014747 -142.195007 -14.111597 4.337955 -10.321405 35.708691 3.130810 2.419126 4.872322 6.297934 0.331509 -8.072012 1.996744 3.376904 33.083019 -2.863066 -2.366546 9.597560 -14.655534 2.095400 
1.620097 48.712830 4.136832 -0.498308 -1.855400 -8.255360 -28.569901 -1.151110 1.199190 9.041560 0.889926 0.307010 -6.559290 15.004300 -10.103600 8.751590 11.981900 -1.924110 2.000000 -2.000000 0.000000 76.574097 -34.433899 68.584503 27.197599 -0.336449 0.062547 0.046730 0.016100 -127.643997 -2.000000 2.000000 0.000000 -65.939400 34.505199 72.159897 -28.877300 0.334565 0.066028 -0.054918 0.012894 -141.531006 -14.189485 4.784506 -10.515557 35.862495 3.165128 2.418066 5.414032 5.461117 0.314773 -7.935589 2.378339 3.415136 32.777622 -2.869432 -2.343656 9.420739 -15.135127 2.086733 
1.847739 48.680058 4.166061 -0.371404 -2.343700 -7.816860 -28.502701 -1.208530 1.019210 9.091050 0.650812 0.219572 -6.704150 14.964400 -10.078300 8.700550 11.924500 -1.901870 2.000000 -2.000000 0.000000 75.736099 -34.094501 71.422302 29.404600 -0.333952 0.067184 0.045628 0.008082 -130.535004 -2.000000 2.000000 0.000000 -65.825798 33.947399 70.724701 -28.535500 0.334957 0.065313 -0.054781 0.011067 -140.876999 -14.278749 5.232285 -10.739333 36.021870 3.146500 2.439541 5.936519 4.584660 0.346277 -7.863981 2.780243 3.457378 32.531567 -2.878355 -2.340026 9.261218 -15.568282 2.052145 
2.105690 48.655384 4.198808 -0.195607 -3.144510 -7.333040 -28.329399 -1.394420 0.828347 9.267530 0.162804 0.133517 -6.775520 14.689300 -10.079800 8.694770 11.622700 -1.935720 2.000000 -2.000000 0.000000 74.995003 -33.549702 74.474998 32.480801 -0.330179 0.073478 0.045024 0.011202 -132.917999 -2.000000 2.000000 0.000000 -65.518402 33.115601 68.620399 -28.203400 0.335333 0.064615 -0.054620 0.008419 -139.929993 -14.473807 6.006418 -10.886664 36.385349 3.144505 2.453753 6.703807 3.080106 0.435088 -7.642460 3.397340 3.172903 32.020065 -2.877770 -2.298203 9.160600 -16.041605 2.032414 
2.363618 48.630711 4.231556 -0.039155 -3.945310 -6.852780 -28.156200 -1.589230 0.641766 9.452940 -0.325816 0.034646 -6.836100 14.414000 -10.089800 8.688960 11.311300 -1.972300 2.000000 -2.000000 0.000000 74.292999 -32.975300 77.498299 35.556999 -0.326073 0.079561 0.044697 0.004538 -135.300995 -2.000000 2.000000 0.000000 -65.171799 32.303200 66.531303 -27.871401 0.335705 0.063916 -0.054501 0.005742 -138.973007 -14.673767 6.768394 -11.015779 36.688942 3.151916 2.462096 7.525280 1.570748 0.561951 -7.412317 4.011890 2.891381 31.443682 -2.849735 -2.289369 9.119773 -16.535746 2.000362 
2.662574 48.575710 4.264369 0.039163 -4.101560 -6.536700 -28.109100 -1.710440 0.649931 9.472290 -0.460006 0.031521 -7.082490 14.466800 -10.272500 8.619080 11.302800 -2.045070 2.000000 -2.000000 0.000000 73.493797 -32.654400 80.423698 39.053101 -0.321018 0.086195 0.044640 -0.001477 -137.449005 -2.000000 2.000000 0.000000 -64.892197 31.715599 64.930199 -27.685900 0.335912 0.063524 -0.054487 0.005332 -138.826004 -14.545829 6.804501 -10.971847 36.609272 3.169339 2.468639 7.994200 0.405083 0.671517 -7.460145 3.910353 2.906753 31.511648 -2.857732 -2.290426 8.614286 -16.851595 1.858725 
2.961561 48.520836 4.297183 0.117513 -4.267570 -6.220390 -28.062201 -1.831730 0.657915 9.491580 -0.594214 0.018539 -7.318540 14.528700 -10.463600 8.558980 11.284300 -2.116660 2.000000 -2.000000 0.000000 72.713997 -32.313499 83.339203 42.558998 -0.315552 0.092525 0.044809 -0.007518 -139.606995 -2.000000 2.000000 0.000000 -64.602898 31.137800 63.324100 -27.500299 0.336117 0.063132 -0.054473 0.004895 -138.669998 -14.402247 6.841081 -10.888584 36.480408 3.173389 2.442353 8.467805 -0.761617 0.820374 -7.562831 3.827631 2.915385 31.638014 -2.870743 -2.292116 8.097489 -17.171688 1.708854 
3.310079 48.402489 4.326155 0.244870 -4.423790 -6.093800 -28.198299 -1.774660 0.808351 9.305810 -0.689614 0.107873 -7.528910 14.445300 -10.637800 8.419420 11.277000 -2.232040 2.000000 -2.000000 0.000000 71.690697 -32.275101 86.083298 46.484798 -0.308985 0.099202 0.045124 -0.012540 -141.404007 -2.000000 2.000000 0.000000 -64.732597 30.980301 62.162201 -26.875299 0.336798 0.061805 -0.054422 0.002735 -137.897995 -14.308039 6.731401 -11.049849 36.501915 3.158234 2.456761 8.327374 -1.710740 0.892433 -7.552588 3.630851 2.819999 31.747065 -2.860134 -2.297331 6.914913 -16.729609 1.281193 
3.658598 48.284389 4.355127 0.372288 -4.589750 -5.958210 -28.334200 -1.717590 0.958782 9.120030 -0.775312 0.195889 -7.748780 14.370400 -10.827900 8.289820 11.269400 -2.347380 2.000000 -2.000000 0.000000 70.657501 -32.187500 88.842499 50.410599 -0.301976 0.105413 0.045596 -0.017549 -143.201004 -2.000000 2.000000 0.000000 -64.862297 30.822701 61.000198 -26.260099 0.337455 0.060492 -0.054399 0.000575 -137.126999 -14.196157 6.637168 -11.211161 36.493252 3.148188 2.463340 8.208129 -2.643656 0.998214 -7.656808 3.456290 2.692998 32.019985 -2.883719 -2.309541 5.716425 -16.288958 0.876768 
4.030133 48.024807 4.358442 0.646749 -4.745790 -5.991640 -28.398899 -1.500260 1.206880 9.188450 -0.756350 0.347365 -7.713820 14.444300 -11.071400 8.291480 11.366800 -2.465300 2.000000 -2.000000 0.000000 69.616096 -32.080101 91.074203 54.365700 -0.294502 0.111171 0.046032 -0.021133 -144.490005 -2.000000 2.000000 0.000000 -64.998199 30.774300 61.312801 -25.957300 0.337773 0.059844 -0.054400 -0.000628 -136.697006 -14.362440 6.598807 -10.891562 36.605385 3.109971 2.489322 7.855191 -3.494905 1.069638 -7.697659 3.285448 2.758271 32.206009 -2.890958 -2.318575 3.750358 -14.643930 0.257672 
4.401692 47.765228 4.361744 0.931140 -4.901700 -6.017610 -28.472900 -1.279490 1.463900 9.256840 -0.746955 0.500799 -7.688850 14.517800 -11.320400 8.293320 11.473900 -2.584430 2.000000 -2.000000 0.000000 68.584503 -31.943100 93.291000 58.311100 -0.286668 0.116387 0.046543 -0.024678 -145.768997 -2.000000 2.000000 0.000000 -65.134102 30.716000 61.635101 -25.654600 0.338087 0.059193 -0.054409 -0.001859 -136.257996 -14.531197 6.575032 -10.563109 36.775276 3.074244 2.495266 7.455369 -4.327361 1.129891 -7.783919 3.123150 2.809075 32.430527 -2.902214 -2.318377 1.818564 -12.971745 -0.311170 
4.807345 47.313797 4.327278 1.127270 -4.959980 -6.045220 -28.390400 -1.031730 1.657230 9.530420 -0.699732 0.624614 -7.635860 14.434300 -11.429100 8.264440 11.532800 -2.664150 2.000000 -2.000000 0.000000 67.358902 -31.815901 95.063698 61.934101 -0.279173 0.120692 0.046849 -0.026568 -146.453003 -2.000000 2.000000 0.000000 -65.590500 31.088400 62.786999 -25.869400 0.337864 0.059655 -0.054402 -0.001121 -136.520996 -14.484793 6.446889 -10.398899 36.874825 3.057274 2.498144 4.222093 -5.321121 0.901415 -7.717042 2.783853 2.691411 32.850868 -2.925560 -2.338303 -1.231926 -10.921483 -0.870478 
5.212988 46.862473 4.292802 1.333260 -5.027940 -6.074310 -28.307899 -0.783764 1.850820 9.803960 -0.661998 0.750705 -7.592960 14.350300 -11.543500 8.235380 11.582000 -2.754390 2.000000 -2.000000 0.000000 66.152802 -31.659201 96.831299 65.547401 -0.271442 0.124505 0.047177 -0.028454 -147.136993 -2.000000 2.000000 0.000000 -66.037102 31.480301 63.948700 -26.084299 0.337640 0.060116 -0.054399 -0.000382 -136.785004 -14.407244 6.343404 -10.246219 36.948288 3.015162 2.532875 0.966276 -6.328235 0.605100 -7.646791 2.451393 2.583113 33.253162 -2.928880 -2.353612 -4.253528 -8.830542 -1.320754 
5.631629 46.252712 4.206313 1.303850 -5.028000 -6.198690 -28.039200 -0.542758 2.110080 10.165300 -0.662778 0.922309 -7.663960 13.813200 -11.516500 8.093250 11.428400 -2.843460 2.000000 -2.000000 0.000000 64.703201 -31.629400 98.389099 69.092300 -0.263639 0.127765 0.047153 -0.028319 -147.087997 -2.000000 2.000000 0.000000 -66.285599 32.166199 66.257896 -26.855801 0.336819 0.061764 -0.054405 0.001395 -137.419998 -14.140644 6.284070 -9.259099 37.539021 2.992053 2.556082 -4.113564 -7.189200 -0.085824 -7.312309 2.039780 2.479661 33.594448 -2.955762 -2.366179 -8.351660 -7.223887 -1.667225 
6.050302 45.642963 4.119823 1.264630 -5.028080 -6.312460 -27.770100 -0.289084 2.374970 10.526700 -0.663531 1.084140 -7.734580 13.275700 -11.500200 7.951300 11.274700 -2.929860 2.000000 -2.000000 0.000000 63.263401 -31.570200 99.932098 72.627502 -0.255671 0.130530 0.047124 -0.028158 -147.029007 -2.000000 2.000000 0.000000 -66.504700 32.861698 68.581596 -27.636999 0.335966 0.063421 -0.054430 0.003173 -138.054993 -13.903229 6.235634 -8.290933 38.110229 2.966013 2.578933 -9.176054 -7.992227 -0.819649 -7.051000 1.646696 2.366772 34.053284 -2.988312 -2.388646 -12.464613 -5.585549 -1.878435 
6.394831 45.074196 4.017798 0.990229 -5.087130 -6.416460 -27.259701 -0.231976 2.530810 10.887800 -0.770154 1.185890 -8.274950 13.114100 -11.709600 7.761390 11.228800 -3.019990 2.000000 -2.000000 0.000000 61.324200 -31.207899 102.007004 76.406799 -0.246982 0.132936 0.047260 -0.028911 -147.302994 -2.000000 2.000000 0.000000 -66.724998 33.644402 70.373398 -28.349899 0.335167 0.064923 -0.054532 0.006535 -139.255997 -13.739009 6.168074 -7.017282 38.743645 2.907388 2.628467 -12.933825 -8.045239 -1.375075 -6.539697 1.427416 2.352210 34.205498 -3.037499 -2.381164 -15.993025 -4.581423 -1.920229 
